<mxfile host="Electron" agent="Mozilla/5.0 (X11; Linux x86_64) AppleWebKit/537.36 (KHTML, like Gecko) draw.io/24.7.17 Chrome/128.0.6613.162 Electron/32.1.2 Safari/537.36" scale="1" border="0" version="24.7.17">
  <diagram name="Page-1" id="so2G5YLaejn2webT6s7b">
    <mxGraphModel dx="869" dy="602" grid="1" gridSize="10" guides="1" tooltips="1" connect="1" arrows="1" fold="1" page="1" pageScale="1" pageWidth="850" pageHeight="1100" math="0" shadow="0">
      <root>
        <mxCell id="0" />
        <mxCell id="1" parent="0" />
        <mxCell id="6v2r7UdW3RT57bt3eFbI-2" value="" style="rounded=0;whiteSpace=wrap;html=1;fillColor=#0D1017;strokeColor=none;container=0;" parent="1" vertex="1">
          <mxGeometry width="760" height="480" as="geometry" />
        </mxCell>
        <mxCell id="6v2r7UdW3RT57bt3eFbI-4" value="" style="rounded=0;whiteSpace=wrap;html=1;fillColor=none;strokeColor=#FFF2CC;container=0;" parent="1" vertex="1">
          <mxGeometry x="80" y="80" width="600" height="320" as="geometry" />
        </mxCell>
        <mxCell id="6v2r7UdW3RT57bt3eFbI-5" value="Camera (x,y) = (0,0)" style="text;html=1;align=center;verticalAlign=middle;whiteSpace=wrap;rounded=0;fontFamily=JetBrainsMono Nerd Font;container=0;" parent="1" vertex="1">
          <mxGeometry x="80" y="80" width="160" height="30" as="geometry" />
        </mxCell>
        <mxCell id="HllS8vVTOCo9QEZZbirI-21" value="" style="group" parent="1" vertex="1" connectable="0">
          <mxGeometry x="172.75" y="182.5" width="414.5" height="115" as="geometry" />
        </mxCell>
        <mxCell id="HllS8vVTOCo9QEZZbirI-13" value="" style="group" parent="HllS8vVTOCo9QEZZbirI-21" vertex="1" connectable="0">
          <mxGeometry x="375.5" y="80" width="34.5" height="35" as="geometry" />
        </mxCell>
        <mxCell id="HllS8vVTOCo9QEZZbirI-14" value="" style="group" parent="HllS8vVTOCo9QEZZbirI-13" vertex="1" connectable="0">
          <mxGeometry x="4.5" width="34.5" height="35" as="geometry" />
        </mxCell>
        <mxCell id="HllS8vVTOCo9QEZZbirI-11" value="" style="line;strokeWidth=1;direction=north;html=1;strokeColor=#FF0000;flipH=1;flipV=0;rotation=0;" parent="HllS8vVTOCo9QEZZbirI-14" vertex="1">
          <mxGeometry x="24.5" width="10" height="30" as="geometry" />
        </mxCell>
        <mxCell id="HllS8vVTOCo9QEZZbirI-12" value="" style="line;strokeWidth=1;html=1;strokeColor=#FF0000;direction=west;flipH=1;flipV=0;rotation=0;" parent="HllS8vVTOCo9QEZZbirI-14" vertex="1">
          <mxGeometry y="25" width="30" height="10" as="geometry" />
        </mxCell>
        <mxCell id="HllS8vVTOCo9QEZZbirI-17" value="" style="group" parent="HllS8vVTOCo9QEZZbirI-21" vertex="1" connectable="0">
          <mxGeometry y="80" width="34.5" height="35" as="geometry" />
        </mxCell>
        <mxCell id="HllS8vVTOCo9QEZZbirI-3" value="" style="line;strokeWidth=1;direction=north;html=1;strokeColor=#FF0000;" parent="HllS8vVTOCo9QEZZbirI-17" vertex="1">
          <mxGeometry width="10" height="30" as="geometry" />
        </mxCell>
        <mxCell id="HllS8vVTOCo9QEZZbirI-4" value="" style="line;strokeWidth=1;html=1;strokeColor=#FF0000;direction=west;" parent="HllS8vVTOCo9QEZZbirI-17" vertex="1">
          <mxGeometry x="4.5" y="25" width="30" height="10" as="geometry" />
        </mxCell>
        <mxCell id="HllS8vVTOCo9QEZZbirI-19" value="" style="group" parent="HllS8vVTOCo9QEZZbirI-21" vertex="1" connectable="0">
          <mxGeometry width="34.5" height="35" as="geometry" />
        </mxCell>
        <mxCell id="HllS8vVTOCo9QEZZbirI-15" value="" style="line;strokeWidth=1;direction=east;html=1;strokeColor=#FF0000;flipH=1;flipV=0;rotation=0;" parent="HllS8vVTOCo9QEZZbirI-19" vertex="1">
          <mxGeometry x="4.5" width="30" height="10" as="geometry" />
        </mxCell>
        <mxCell id="HllS8vVTOCo9QEZZbirI-16" value="" style="line;strokeWidth=1;html=1;strokeColor=#FF0000;direction=north;flipH=1;flipV=0;rotation=0;" parent="HllS8vVTOCo9QEZZbirI-19" vertex="1">
          <mxGeometry y="5" width="10" height="30" as="geometry" />
        </mxCell>
        <mxCell id="HllS8vVTOCo9QEZZbirI-20" value="" style="group" parent="HllS8vVTOCo9QEZZbirI-21" vertex="1" connectable="0">
          <mxGeometry x="380" width="34.5" height="35" as="geometry" />
        </mxCell>
        <mxCell id="HllS8vVTOCo9QEZZbirI-9" value="" style="line;strokeWidth=1;direction=east;html=1;strokeColor=#FF0000;" parent="HllS8vVTOCo9QEZZbirI-20" vertex="1">
          <mxGeometry width="30" height="10" as="geometry" />
        </mxCell>
        <mxCell id="HllS8vVTOCo9QEZZbirI-10" value="" style="line;strokeWidth=1;html=1;strokeColor=#FF0000;direction=north;" parent="HllS8vVTOCo9QEZZbirI-20" vertex="1">
          <mxGeometry x="24.5" y="5" width="10" height="30" as="geometry" />
        </mxCell>
      </root>
    </mxGraphModel>
  </diagram>
</mxfile>
